# xmcd CD database file
#
# Track frame offsets:
#	150
#	14637
#	34075
#	43000
#	54537
#	79225
#	120900
#	151625
#	168775
#	192975
#	240637
#	248400
#	257312
#	269575
#
# Disc length: 3783 seconds
#
# Revision: 0
# Processed by: cddbd v1.5.1PL0 Copyright (c) Steve Scherf et al.
# Submitted via: CDex 1.51
#
DISCID=a70ec50e
DTITLE=アーティスト - 最新ピアノベスト100
DYEAR=1900
DGENRE=Classical
TTITLE0=ベートーヴェン：エリーゼのために
TTITLE1=クライスラー：愛の悲しみ
TTITLE2=シューベルト：楽興の時第三番
TTITLE3=シューマン：トロイメライ
TTITLE4=サティ：きみがほしい
TTITLE5=ショパン：葬送行進曲
TTITLE6=ショパン：英雄ポロネーズ
TTITLE7=ショパン：ワルツ第10番ロ短調
TTITLE8=ショパン：華麗なる大円舞曲
TTITLE9=ラヴェル：ソナチネ
TTITLE10=プロコフィエフ：「3つのオレンジへの恋」〜マーチ
TTITLE11=ダカン：かっこう
TTITLE12=メンデルスゾーン：狩りの歌
TTITLE13=パデレフスキ：メヌエット
EXTD=
EXTT0=
EXTT1=
EXTT2=
EXTT3=
EXTT4=
EXTT5=
EXTT6=
EXTT7=
EXTT8=
EXTT9=
EXTT10=
EXTT11=
EXTT12=
EXTT13=
PLAYORDER=
